<?xml version="1.0" encoding="UTF-8" standalone="yes" ?><!-- This is a comment--><svg xmlns="http://www.w3.org/2000/svg" viewBox="0 0 100 100" ><rect x1="0" y1="0" rx="20" ry="20" width="100" height="100" style="fill:blue" /><style>.test{fill:none;stroke:white;stroke-width:3}</style><polyline style="fill:none;stroke:red"  points="0,25 1,27.495834 2,29.966732 3,32.388004 4,34.73546 5,36.985638 6,39.116062 7,41.105442 8,42.933903 9,44.58317 10,46.036774 11,47.280186 12,48.300976 13,49.088955 14,49.636246 15,49.937374 16,49.989338 17,49.791622 18,49.34619 19,48.6575 20,47.732437 21,46.58024 22,45.21241 23,43.64263 24,41.88658 25,39.961803 26,37.88754 27,35.684498 28,33.374706 29,30.981232 30,28.528 31,26.03952 32,23.540646 33,21.056358 34,18.61147 35,16.23042 36,13.936991 37,11.754095 38,9.703554 39,7.805844 40,6.0799375 41,4.5430737 42,3.2106087 43,2.0958498 44,1.2099475 45,0.56174695 46,0.15772581 47,0.0019192696 48,0.0958845 49,0.43868572 50,1.0268927 51,1.8546313 52,2.9136314 53,4.1933165 54,5.680889 55,7.3614926 56,9.218332 57,11.232858 58,13.384951 59,15.653086 60,18.014612 61,20.445936 62,22.92276 63,25.420353 64,27.91373 65,30.377998 66,32.788532 67,35.121243 68,37.352837 69,39.460995 70,41.424664 71,43.224224 72,44.841694 73,46.260918 74,47.4677 75,48.45 76,49.19799 77,49.704205 78,49.963585 79,49.973534 80,49.733955 81,49.247242 82,48.518265 83,47.554295 84,46.36498 85,44.96218 86,43.35992 87,41.574234 88,39.622925 89,37.525528 90,35.30296 91,32.97745 92,30.572254 93,28.111357 94,25.619396 95,23.121222 96,20.64182 97,18.205988 98,15.838018 99,13.561611 "/><path style="fill:none;stroke:green"  d="M 50 50 L 0 50 L 1 49.875103 L 2 49.501663 L 3 48.883415 L 4 48.026527 L 5 46.939564 L 6 45.633392 L 7 44.121056 L 8 42.41767 L 9 40.54025 L 10 38.507557 L 11 36.339905 L 12 34.058945 L 13 31.687471 L 14 29.24918 L 15 26.76843 L 16 24.270012 L 17 21.778887 L 18 19.319948 L 19 16.917763 L 20 14.596328 L 21 12.378849 L 22 10.287471 L 23 8.343101 L 24 6.565155 L 25 4.9714103 L 26 3.5777822 L 27 2.3981957 L 28 1.4444425 L 29 0.72604567 L 30 0.25018752 L 31 0.021621585 L 32 0.042630732 L 33 0.31300485 L 34 0.83004534 L 35 1.588583 L 36 2.581039 L 37 3.7975 L 38 5.2258058 L 39 6.851694 L 40 8.65891 L 41 10.629399 L 42 12.743476 L 43 14.980024 L 44 17.31668 L 45 19.730104 L 46 22.196184 L 47 24.690279 L 48 27.187479 L 49 29.662811 L 50 32.091557 L 51 34.44944 L 52 36.712914 L 53 38.85936 L 54 40.86732 L 55 42.716743 L 56 44.389145 L 57 45.867817 L 58 47.13799 L 59 48.186962 L 60 49.004257 L 61 49.58171 L 62 49.91355 L 63 49.996464 L 64 49.829624 L 65 49.414692 L 66 48.755817 L 67 47.85958 L 68 46.734936 L 69 45.393127 L 70 43.847553 L 71 42.113667 L 72 40.208786 L 73 38.15193 L 74 35.96368 L 75 33.665882 L 76 31.281498 L 77 28.834352 L 78 26.34888 L 79 23.849945 L 80 21.3625 L 81 18.911386 L 82 16.521132 L 83 14.215573 L 84 12.017793 L 85 9.949702 L 86 8.031991 L 87 6.2838373 L 88 4.722671 L 89 3.3641248 L 90 2.2217438 L 91 1.306957 L 92 0.62891096 L 93 0.19436628 L 94 0.007674098 L 95 0.07069558 L 96 0.38280487 L 97 0.9408772 L 98 1.7393456 L 99 2.7702167 z"/><g class="test" ><circle cx="50" cy="50" r="0" /><circle cx="50" cy="50" r="10" /><circle cx="50" cy="50" r="20" /><circle cx="50" cy="50" r="30" /><circle cx="50" cy="50" r="40" /></g></svg>